<svg xmlns="http://www.w3.org/2000/svg" width="1269pt" height="1269pt" version="1" viewBox="0 0 1269.000000 1269.000000"><path d="M603.8 4.5c-.2.1-4.3.5-9.3.9-23.2 1.7-24 1.8-33 3-1.6.2-5.5.7-8.5 1-7.6.8-37.3 5.6-43.5 7-1.1.3-6 1.4-11 2.5-4.9 1.2-10.1 2.3-11.5 2.6-14.4 3-64.6 18.5-74.5 22.9-1.6.7-6.8 2.8-11.5 4.6-11.8 4.4-33.2 14-47.5 21.3-6.6 3.3-13.6 6.8-15.5 7.8-5.3 2.6-32 18.2-40.3 23.5-10.6 6.8-24.1 15.8-24.7 16.4-.3.3-3.6 2.8-7.5 5.5-8.6 6-19.9 14.7-20.3 15.7-.2.5-1 .8-1.8.8s-1.4.4-1.4.8c0 .5-1.8 2.1-4 3.8-4.3 3.1-4.6 3.4-15.7 13.2-3.9 3.4-8.4 7.2-9.9 8.5-4.8 3.7-39.5 38.6-48 48.2-12.8 14.7-17.9 20.7-22 26-2 2.7-6.1 7.9-8.9 11.5-12 15-34.5 48.6-44.9 67-2.7 4.7-5.9 10.3-7.1 12.5-10.1 17.9-26 51.8-34 72.5-2 5.2-4 10.4-4.5 11.5-2.4 5.3-12.7 36.9-15.5 47.5-4.8 18.1-9.8 39-11.5 48-1.2 6.3-2.4 12.4-2.6 13.5-.2 1.1-.7 4-1 6.5-.3 2.5-.8 4.9-1.1 5.3-.3.5-.7 2.7-.9 5-.5 5-1 9.6-1.8 15.7-2.5 18.3-2.8 21.8-4.2 52-1.1 22-.6 55.3 1 73.5.2 2.2.7 7.8 1 12.5.4 4.7.9 9.6 1.1 11 .4 2.7.8 5.9 2.5 19 1.2 9.3 1.1 8.7 4.1 24.5 1.1 6 2.3 12.3 2.5 14 .3 1.6 1 4.8 1.6 7 .5 2.2 1.1 4.7 1.3 5.5 1.4 6.8 3.8 17 4.4 19 1.4 4.2 3.2 10.4 3.5 12 1.3 7 13.5 43.2 20.7 61.4 8.8 22 23.8 54 32.6 69.6 6.5 11.6 16.9 29 19.4 32.6 1.6 2.4 2.9 4.5 2.9 4.8 0 .8 19.7 29.3 26.4 38.1 7.6 10.1 21 26.9 25.2 31.5 1.7 1.9 6.9 7.8 11.5 13 13.7 15.4 44.5 45.8 54.4 53.5 2.1 1.7 4.7 4 5.9 5.1 1.2 1.2 8 6.7 15.1 12.4 7.2 5.6 13.8 10.8 14.8 11.6.9.8 4.1 3.1 7 5.1 2.8 2 8.2 5.8 11.8 8.5 3.7 2.6 7.1 4.8 7.7 4.8.6 0 1.2.4 1.4.8.3.8 9.5 7.2 10.3 7.2.2 0 3.6 2.2 7.7 4.8 18.4 12.1 49.4 28.5 78.1 41.3 9.8 4.3 18.1 7.9 18.3 7.9.2 0 5.5 2 11.7 4.4 13.5 5.3 38.4 13.7 49.3 16.6 4.3 1.2 9.5 2.6 11.4 3.2 2.8.7 16.8 4.1 30.5 7.4 4.7 1.1 40.4 7.4 44.5 7.9 9.3 1.1 14.4 1.7 15.9 2 1.6.3 11.1 1.2 20.6 2 42.5 3.5 100.5 2.1 134-3.2 1.7-.2 5-.6 7.5-.9 6.6-.7 39.8-6.6 43.8-7.8.9-.3 2.8-.7 4.2-1 3.5-.6 23.9-5.5 27.5-6.6 1.7-.5 5.5-1.6 8.5-2.5 3-.9 6.5-1.8 7.8-2.1 7.3-1.5 50.2-16.9 63.7-22.8 23.5-10.3 55.7-25.9 59-28.5.5-.5 3.3-2.1 6-3.6 16.7-9 28.7-16.5 50.7-31.8 14.5-10.1 29.1-20.8 30.8-22.7.3-.3 3.7-3 7.5-5.9 3.9-3 7.9-6.4 9-7.5 1.1-1.2 6-5.4 10.8-9.5 13.5-11.4 42.6-40.6 56.9-57.1 2.6-3 5.7-6.6 6.9-8 1.2-1.4 5.8-7 10.1-12.5 4.4-5.5 8.9-11 9.9-12.3 2.2-2.6 20.1-27.7 24-33.7 9.2-14.1 12.6-19.6 20.3-32.8 4.7-8.1 10.5-18.6 12.9-23.5 2.5-4.8 5.7-11 7.1-13.7 1.4-2.8 4.5-9.1 6.7-14 2.3-5 5.1-11.3 6.4-14 3.9-8.4 14.1-35.2 18.9-49.5 11-32.8 17.5-58.8 24-96 2.3-13 2.4-13.7 3.1-20 .3-3 1-8.2 1.5-11.5.5-3.3 1.2-9.8 1.6-14.5.3-4.7.7-10.1.9-12 1.6-16.7 2.2-60.1 1-80-1.3-22-2.9-40-4.1-46.5-.3-1.1-.6-4-.9-6.5-.8-7.2-1.5-12.1-2.6-17.9-.6-3-1.2-6.4-1.4-7.5-.8-6.5-4.8-25.9-8.7-41.6-4.1-16.9-15.9-55.5-19.3-63.5-.7-1.7-2.7-6.8-4.5-11.5-1.7-4.7-3.8-9.9-4.6-11.7-.8-1.7-1.4-3.4-1.4-3.7 0-.3-1.1-2.9-2.4-5.8-1.3-2.9-3.9-8.6-5.8-12.7-5.6-12.5-18.4-37.6-26-51-10.1-17.7-31.1-50.2-38.6-59.6-.4-.6-1.8-2.6-3.2-4.5-1.3-1.9-2.7-3.7-3-4-.3-.3-2.1-2.5-4-5s-3.7-4.7-4-5c-.3-.3-1.7-2.1-3-4s-2.7-3.7-3-4c-.3-.3-5.9-6.8-12.5-14.5-17-19.9-50.3-53-67.5-67.1-1.9-1.6-4.4-3.7-5.5-4.7-3.5-3.3-27.7-22.1-35-27.2-3.8-2.7-7.1-5.3-7.3-5.7-.2-.5-1-.8-1.7-.8s-1.5-.3-1.7-.8c-.5-1.2-40.9-27.2-42.3-27.2-.1 0-4.2-2.3-9.1-5.1-17-9.8-51.1-26.2-67.3-32.5-3.6-1.4-7.5-2.9-8.6-3.4-14.9-6.7-62.2-21.7-83.5-26.5-8-1.8-9.7-2.2-13.2-3.1-2.4-.5-21.2-4.1-26.3-4.9-1.6-.3-5-.9-7.5-1.4-2.5-.6-7-1.3-10-1.6-3-.4-6.6-.8-8-1-1.4-.2-5-.6-8.1-.9-3.1-.4-6.6-.8-7.7-1.1-1.1-.2-6.5-.7-11.9-1-5.4-.4-11.6-.9-13.8-1.2-4.2-.4-72.3-1.2-72.7-.8z"/></svg>