<?xml version="1.0" standalone="no"?>
<!DOCTYPE svg PUBLIC "-//W3C//DTD SVG 20010904//EN"
 "http://www.w3.org/TR/2001/REC-SVG-20010904/DTD/svg10.dtd">
<svg version="1.0" xmlns="http://www.w3.org/2000/svg"
 width="1269.000000pt" height="1269.000000pt" viewBox="0 0 1269.000000 1269.000000"
 preserveAspectRatio="xMidYMid meet">
<metadata>
Created by potrace 1.11, written by Peter Selinger 2001-2013
</metadata>
<g transform="translate(0.000000,1269.000000) scale(0.100000,-0.100000)"
fill="#000000" stroke="none">
<path d="M6038 12645 c-2 -1 -43 -5 -93 -9 -232 -17 -240 -18 -330 -30 -16 -2
-55 -7 -85 -10 -76 -8 -373 -56 -435 -70 -11 -3 -60 -14 -110 -25 -49 -12
-101 -23 -115 -26 -144 -30 -646 -185 -745 -229 -16 -7 -68 -28 -115 -46 -118
-44 -332 -140 -475 -213 -66 -33 -136 -68 -155 -78 -53 -26 -320 -182 -403
-235 -106 -68 -241 -158 -247 -164 -3 -3 -36 -28 -75 -55 -86 -60 -199 -147
-203 -157 -2 -5 -10 -8 -18 -8 -8 0 -14 -4 -14 -8 0 -5 -18 -21 -40 -38 -43
-31 -46 -34 -157 -132 -39 -34 -84 -72 -99 -85 -48 -37 -395 -386 -480 -482
-128 -147 -179 -207 -220 -260 -20 -27 -61 -79 -89 -115 -120 -150 -345 -486
-449 -670 -27 -47 -59 -103 -71 -125 -101 -179 -260 -518 -340 -725 -20 -52
-40 -104 -45 -115 -24 -53 -127 -369 -155 -475 -48 -181 -98 -390 -115 -480
-12 -63 -24 -124 -26 -135 -2 -11 -7 -40 -10 -65 -3 -25 -8 -49 -11 -53 -3 -5
-7 -27 -9 -50 -5 -50 -10 -96 -18 -157 -25 -183 -28 -218 -42 -520 -11 -220
-6 -553 10 -735 2 -22 7 -78 10 -125 4 -47 9 -96 11 -110 4 -27 8 -59 25 -190
12 -93 11 -87 41 -245 11 -60 23 -123 25 -140 3 -16 10 -48 16 -70 5 -22 11
-47 13 -55 14 -68 38 -170 44 -190 14 -42 32 -104 35 -120 13 -70 135 -432
207 -614 88 -220 238 -540 326 -696 65 -116 169 -290 194 -326 16 -24 29 -45
29 -48 0 -8 197 -293 264 -381 76 -101 210 -269 252 -315 17 -19 69 -78 115
-130 137 -154 445 -458 544 -535 21 -17 47 -40 59 -51 12 -12 80 -67 151 -124
72 -56 138 -108 148 -116 9 -8 41 -31 70 -51 28 -20 82 -58 118 -85 37 -26 71
-48 77 -48 6 0 12 -4 14 -8 3 -8 95 -72 103 -72 2 0 36 -22 77 -48 184 -121
494 -285 781 -413 98 -43 181 -79 183 -79 2 0 55 -20 117 -44 135 -53 384
-137 493 -166 43 -12 95 -26 114 -32 28 -7 168 -41 305 -74 47 -11 404 -74
445 -79 93 -11 144 -17 159 -20 16 -3 111 -12 206 -20 425 -35 1005 -21 1340
32 17 2 50 6 75 9 66 7 398 66 438 78 9 3 28 7 42 10 35 6 239 55 275 66 17 5
55 16 85 25 30 9 65 18 78 21 73 15 502 169 637 228 235 103 557 259 590 285
5 5 33 21 60 36 167 90 287 165 507 318 145 101 291 208 308 227 3 3 37 30 75
59 39 30 79 64 90 75 11 12 60 54 108 95 135 114 426 406 569 571 26 30 57 66
69 80 12 14 58 70 101 125 44 55 89 110 99 123 22 26 201 277 240 337 92 141
126 196 203 328 47 81 105 186 129 235 25 48 57 110 71 137 14 28 45 91 67
140 23 50 51 113 64 140 39 84 141 352 189 495 110 328 175 588 240 960 23
130 24 137 31 200 3 30 10 82 15 115 5 33 12 98 16 145 3 47 7 101 9 120 16
167 22 601 10 800 -13 220 -29 400 -41 465 -3 11 -6 40 -9 65 -8 72 -15 121
-26 179 -6 30 -12 64 -14 75 -8 65 -48 259 -87 416 -41 169 -159 555 -193 635
-7 17 -27 68 -45 115 -17 47 -38 99 -46 117 -8 17 -14 34 -14 37 0 3 -11 29
-24 58 -13 29 -39 86 -58 127 -56 125 -184 376 -260 510 -101 177 -311 502
-386 596 -4 6 -18 26 -32 45 -13 19 -27 37 -30 40 -3 3 -21 25 -40 50 -19 25
-37 47 -40 50 -3 3 -17 21 -30 40 -13 19 -27 37 -30 40 -3 3 -59 68 -125 145
-170 199 -503 530 -675 671 -19 16 -44 37 -55 47 -35 33 -277 221 -350 272
-38 27 -71 53 -73 57 -2 5 -10 8 -17 8 -7 0 -15 3 -17 8 -5 12 -409 272 -423
272 -1 0 -42 23 -91 51 -170 98 -511 262 -673 325 -36 14 -75 29 -86 34 -149
67 -622 217 -835 265 -80 18 -97 22 -132 31 -24 5 -212 41 -263 49 -16 3 -50
9 -75 14 -25 6 -70 13 -100 16 -30 4 -66 8 -80 10 -14 2 -50 6 -81 9 -31 4
-66 8 -77 11 -11 2 -65 7 -119 10 -54 4 -116 9 -138 12 -42 4 -723 12 -727 8z"/>
</g>
</svg>
